<?xml version="1.0" standalone="no"?>
<!DOCTYPE svg PUBLIC "-//W3C//DTD SVG 20010904//EN"
 "http://www.w3.org/TR/2001/REC-SVG-20010904/DTD/svg10.dtd">
<svg version="1.0" xmlns="http://www.w3.org/2000/svg"
 width="260.000000pt" height="260.000000pt" viewBox="0 0 260.000000 260.000000"
 preserveAspectRatio="xMidYMid meet">
<metadata>
Created by potrace 1.11, written by Peter Selinger 2001-2013
</metadata>
<g transform="translate(0.000000,260.000000) scale(0.100000,-0.100000)"
fill="#000000" stroke="none">
<path d="M1169 2596 c-2 -2 -24 -6 -49 -10 -102 -14 -128 -19 -214 -48 -444
-144 -775 -508 -876 -963 -20 -86 -25 -145 -25 -275 0 -139 9 -220 32 -310 3
-14 7 -29 8 -35 12 -50 55 -158 95 -240 149 -301 425 -540 751 -649 77 -26 86
-28 209 -50 114 -21 350 -14 475 14 519 116 912 525 1005 1045 25 140 21 364
-9 495 -29 122 -21 96 -64 210 -147 394 -525 709 -954 796 -70 14 -373 30
-384 20z"/>
</g>
</svg>
